<?xml version="1.0" encoding="utf-8"?>
<!-- Generator: Adobe Illustrator 19.0.0, SVG Export Plug-In . SVG Version: 6.00 Build 0)  -->
<svg version="1.1" id="Lager_1" xmlns="http://www.w3.org/2000/svg"  x="0px" y="0px"
	 viewBox="0 0 185.2 182.5" enable-background="new 0 0 185.2 182.5" xml:space="preserve">
<g id="XMLID_2278_">
	<path id="XMLID_2292_" fill="none" d="M169.2,162.3l-2.6-35.9c-0.1-1.1-0.5-2.6-1.3-3.4L142,99.2h-15.2c-0.5,4-2.8,4.4-5.4,4.4
		c-2.7,0-4.9-0.4-5.4-4.4h-8.4c0.1,0,0.5,1.7,0.5,2.3c0,5.7-4.6,10.5-10.3,10.5s-10.3-4.5-10.3-10.1c0-0.6,0.3-1.4,0.4-2l-29.8-0.4
		l65.3,65.1c0.8,0.8,3.2,1.1,4.4,1.1l36.7,1l13,12.4c1,1,3.2-0.8,4.1-1.8c1-1,0.3-2.4-0.7-3.4L169.2,162.3z"/>
	<g id="XMLID_2289_">
		<path id="XMLID_32_" fill="#FFFFFF" d="M178.8,181.5c-1.4,0-2.8-0.6-3.8-1.6l-11.1-11.1l-36.8-0.7c-1.9,0-3.7-0.8-5-2.1l-79-78.8
			c-1.4-1.4-2.2-3.3-2.2-5.2c0-2,0.8-3.8,2.2-5.2l8-8c0.4-0.4,0.6-0.9,0.6-1.4s-0.2-1-0.6-1.4L27.4,42.4L7.6,43.3l-0.2,0
			c-3,0-5.6-2-6.3-4.9c-0.5-2.1,0.2-4.3,1.7-5.9L32.6,2.9C33.8,1.7,35.4,1,37.1,1c0.5,0,0.9,0,1.4,0.1c3,0.7,5.2,3.3,5.1,6.3
			l-0.4,19.3l23.6,23.6c0.4,0.4,0.9,0.6,1.4,0.6c0.5,0,1-0.2,1.4-0.6l8-8c1.3-1.3,3.3-2.1,5.3-2.1s3.9,0.8,5.3,2.1l79.2,79.1
			c1.3,1.3,2,2.9,2.1,4.7l2,35l11.2,11.1c1,1,1.6,2.4,1.6,3.8s-0.6,2.8-1.6,3.8C181.6,180.9,180.3,181.5,178.8,181.5z M124.8,163.3
			c0.6,0.6,1.5,1,2.4,1l38.4,0.7l12.2,12.2c0.3,0.3,0.7,0.4,1.1,0.4s0.8-0.2,1.1-0.5c0.3-0.3,0.4-0.7,0.4-1.1c0-0.4-0.2-0.8-0.5-1.1
			l-12.2-12.2l-2.1-36.5c0-0.8-0.4-1.6-1-2.2l-23-22.9h-14.1c-0.9,2.2-3.3,4.4-6.1,4.4c-2.8,0-5.2-2.2-6.1-4.4h-6.1
			c0,0.2,0,0.5,0,0.8c0,6.2-5.1,11.3-11.3,11.3s-11.3-5.1-11.3-11.3c0-0.3,0-0.5,0-0.8H62.5L124.8,163.3z"/>
		<path id="XMLID_27_" fill="#FFFFFF" d="M37.1,2c0.4,0,0.8,0,1.1,0.1c2.6,0.6,4.4,2.8,4.3,5.3l-0.4,19.7L66.1,51
			c0.6,0.6,1.4,0.9,2.1,0.9c0.8,0,1.5-0.3,2.1-0.9l8-8c1.2-1.2,2.9-1.8,4.5-1.8c1.7,0,3.3,0.6,4.5,1.8l79.2,79.1
			c1.1,1.1,1.7,2.5,1.8,4.1l2.1,35.4l11.4,11.4c1.7,1.7,1.7,4.5,0,6.2c-0.9,0.8-2,1.3-3.1,1.3c-1.1,0-2.2-0.4-3.1-1.3l-11.4-11.4
			l-37.2-0.7c-1.6,0-3.2-0.7-4.3-1.8l-79-78.8c-1.2-1.2-1.9-2.8-1.9-4.5c0-1.7,0.7-3.3,1.9-4.5l8-8c1.2-1.2,1.2-3.1,0-4.2L27.8,41.4
			L7.6,42.3c0,0-0.1,0-0.1,0c-2.5,0-4.7-1.7-5.3-4.2c-0.4-1.8,0.1-3.6,1.4-4.9L33.3,3.6C34.3,2.5,35.7,2,37.1,2 M121.4,104.6
			c-2.7,0-4.9-2.4-5.4-4.4h-8c0.1,1,0.2,1.2,0.2,1.8c0,5.7-4.6,10.3-10.3,10.3s-10.3-4.6-10.3-10.3c0-0.6,0.1-0.8,0.2-1.8H60.1
			l64,63.8c0.8,0.8,1.9,1.3,3.1,1.3l38,0.7l12,11.9c0.5,0.5,1.1,0.7,1.8,0.7c0.7,0,1.3-0.2,1.8-0.7c1-1,1-2.6,0-3.6l-11.9-11.9
			l-2.1-36.1c-0.1-1.1-0.5-2.1-1.3-2.9L142,100.2h-15.2C126.3,102.2,124.1,104.6,121.4,104.6 M37.1,0C37.1,0,37.1,0,37.1,0
			c-2,0-3.8,0.8-5.2,2.1L2.2,31.8c-1.8,1.8-2.5,4.3-2,6.8c0.8,3.4,3.7,5.7,7.3,5.7l0.2,0L27,43.5l23.3,23.3c0.2,0.2,0.3,0.5,0.3,0.7
			c0,0.2,0,0.4-0.3,0.7l-8,8c-1.6,1.6-2.5,3.7-2.5,5.9c0,2.2,0.9,4.4,2.5,5.9l79,78.8c1.5,1.5,3.6,2.4,5.7,2.4l36.4,0.7l10.9,10.8
			c1.2,1.2,2.8,1.9,4.5,1.9c1.7,0,3.3-0.7,4.5-1.9c1.2-1.2,1.9-2.8,1.9-4.5c0-1.7-0.7-3.3-1.9-4.5l-10.9-10.9l-2-34.6
			c-0.1-2-1-3.9-2.4-5.4L88.8,41.7c-1.5-1.5-3.7-2.4-6-2.4c-2.3,0-4.4,0.9-6,2.4l-8,8c-0.3,0.3-0.5,0.3-0.7,0.3
			c-0.2,0-0.5,0-0.7-0.3L44.1,26.3l0.4-18.8c0.1-3.5-2.4-6.6-5.9-7.3C38.1,0.1,37.6,0,37.1,0L37.1,0L37.1,0z M128.2,102.2h13
			l22.7,22.7c0.4,0.4,0.7,1,0.7,1.6l2.1,36.1l0,0.8l0.5,0.5l11.9,11.9c0.1,0.1,0.2,0.3,0.2,0.4c0,0.1,0,0.2-0.2,0.4
			c-0.1,0.1-0.3,0.2-0.4,0.2c-0.1,0-0.2,0-0.4-0.2l-12-11.9l-0.6-0.6l-0.8,0l-38-0.7c-0.7,0-1.3-0.3-1.7-0.7l-60.6-60.4h20.7
			c0.1,6.7,5.6,12,12.3,12c6.7,0,12.2-5.4,12.3-12h4.5c1.2,2.3,3.8,4.4,6.8,4.4C124.4,106.6,127,104.6,128.2,102.2L128.2,102.2z"/>
	</g>
</g>
</svg>
